<?xml version="1.0"?>
<svg width="164" height="164" xmlns="http://www.w3.org/2000/svg" xmlns:svg="http://www.w3.org/2000/svg">
 <title>Alfis logo</title>
 <defs>
  <linearGradient id="paint0_linear" x1="0.997969" x2="0.057969" y1="0" y2="0.999422">
   <stop stop-color="#4254DC"/>
   <stop offset="0.494792" stop-color="#3EAFDE"/>
   <stop offset="1" stop-color="#56DDA1"/>
  </linearGradient>
  <linearGradient id="paint1_linear" x1="0.870025" x2="0.114921" y1="1.084078" y2="-0.159618">
   <stop stop-color="#983AE2"/>
   <stop offset="0.505208" stop-color="#6173F8"/>
   <stop offset="1" stop-color="#4ED3F9"/>
  </linearGradient>
  <linearGradient id="paint2_linear" x1="0.166674" x2="0.953815" y1="1.06557" y2="-0.053071">
   <stop stop-color="#D13587"/>
   <stop offset="0.520833" stop-color="#F2496C"/>
   <stop offset="1" stop-color="#FD7B68"/>
  </linearGradient>
 </defs>
 <g class="layer">
  <title>Layer 1</title>
  <path clip-rule="evenodd" d="m82.1,2.5c-13.807,0 -25,11.193 -25,25l0,45.8l10,-5.8l0,-40c0,-8.284 6.716,-15 15,-15c8.284,0 15,6.716 15,15l0,22c0,2.761 2.239,5 5,5c2.762,0 5,-2.239 5,-5l0,-22c0,-13.807 -11.193,-25 -25,-25zm-7.415,98.043l0,0.098l17.08,9.922c9.008,-3.779 15.335,-12.682 15.335,-23.063l0,-24c0,-2.761 -2.238,-5 -5,-5c-2.761,0 -5,2.239 -5,5l0,24c0,8.284 -6.716,15 -15,15c-2.437,0 -4.724,-0.577 -6.747,-1.598c-0.226,-0.114 -0.449,-0.234 -0.668,-0.359z" fill="url(#paint0_linear)" fill-rule="evenodd" id="svg_2"/>
  <circle cx="82.1" cy="151.5" fill="#D13587" id="svg_3" r="10"/>
  <path clip-rule="evenodd" d="m155.9,130.151c6.903,-11.957 2.807,-27.247 -9.151,-34.151l-39.664,-22.9l0.023,11.56l34.641,20c7.175,4.143 9.633,13.316 5.491,20.491c-4.142,7.174 -13.316,9.632 -20.491,5.49l-19.052,-11c-2.392,-1.38 -5.45,-0.561 -6.83,1.83c-1.381,2.392 -0.562,5.45 1.83,6.831l19.052,11c11.958,6.903 27.247,2.806 34.151,-9.151zm-81.201,-55.443l-0.085,-0.049l-17.132,9.831c-1.231,9.691 3.316,19.621 12.306,24.812l20.784,12c2.392,1.38 5.45,0.561 6.83,-1.831c1.381,-2.391 0.562,-5.449 -1.83,-6.83l-20.784,-12c-7.175,-4.142 -9.633,-13.316 -5.491,-20.49c1.219,-2.111 2.863,-3.803 4.758,-5.044c0.212,-0.139 0.427,-0.272 0.644,-0.399z" fill="url(#paint1_linear)" fill-rule="evenodd" id="svg_4"/>
  <circle cx="26.862" cy="55.651" fill="#4254DC" id="svg_5" r="10" transform="rotate(120, 26.862, 55.651)"/>
  <path clip-rule="evenodd" d="m8.5,130.25c6.904,11.957 22.193,16.054 34.151,9.15l39.664,-22.9l-10.023,-5.76l-34.641,20c-7.175,4.142 -16.349,1.684 -20.491,-5.49c-4.142,-7.175 -1.684,-16.349 5.491,-20.491l19.052,-11c2.392,-1.38 3.211,-4.438 1.83,-6.83c-1.38,-2.391 -4.438,-3.211 -6.83,-1.83l-19.052,11c-11.958,6.904 -16.055,22.193 -9.151,34.151zm88.615,-42.601l0.085,-0.049l0.053,-19.752c-7.777,-5.912 -18.651,-6.939 -27.641,-1.749l-20.784,12c-2.392,1.381 -3.211,4.439 -1.831,6.83c1.381,2.392 4.439,3.211 6.831,1.83l20.784,-12c7.175,-4.142 16.348,-1.684 20.491,5.491c1.218,2.11 1.862,4.38 1.989,6.642c0.014,0.252 0.022,0.505 0.023,0.757z" fill="url(#paint2_linear)" fill-rule="evenodd" id="svg_6"/>
  <circle cx="137.538" cy="55.749" fill="#983AE2" id="svg_7" r="9.999992" transform="rotate(-120, 137.538, 55.7489)"/>
 </g>
</svg>