<svg xmlns="http://www.w3.org/2000/svg" xmlns:xlink="http://www.w3.org/1999/xlink" viewBox="0 0 989.68 989.75"><defs><style>.a{opacity:0.73;}.b{fill:#22b573;}.c{fill:url(#a);}.d{fill:url(#b);}.e{fill:url(#c);}.f{opacity:0.39;}.g,.h,.i{fill:#263238;}.g{opacity:0.35;}.h{opacity:0.6;}</style><linearGradient id="a" x1="435" y1="210.45" x2="606.41" y2="1027.53" gradientUnits="userSpaceOnUse"><stop offset="0" stop-color="#fff" stop-opacity="0"/><stop offset="0.12" stop-color="#fefefa" stop-opacity="0.02"/><stop offset="0.25" stop-color="#fcfced" stop-opacity="0.08"/><stop offset="0.39" stop-color="#f8f9d6" stop-opacity="0.19"/><stop offset="0.54" stop-color="#f2f5b6" stop-opacity="0.33"/><stop offset="0.69" stop-color="#ebef8d" stop-opacity="0.51"/><stop offset="0.84" stop-color="#e3e85b" stop-opacity="0.74"/><stop offset="1" stop-color="#d9e021"/></linearGradient><linearGradient id="b" x1="887.75" y1="500.59" x2="-103.68" y2="487.11" gradientUnits="userSpaceOnUse"><stop offset="0" stop-color="#fff" stop-opacity="0"/><stop offset="0.12" stop-color="#fffbfb" stop-opacity="0.02"/><stop offset="0.24" stop-color="#feefef" stop-opacity="0.07"/><stop offset="0.37" stop-color="#fcdadb" stop-opacity="0.16"/><stop offset="0.51" stop-color="#fabdc0" stop-opacity="0.29"/><stop offset="0.64" stop-color="#f7989c" stop-opacity="0.45"/><stop offset="0.78" stop-color="#f36b70" stop-opacity="0.65"/><stop offset="0.91" stop-color="#ef363e" stop-opacity="0.88"/><stop offset="0.97" stop-color="#ed1c24"/></linearGradient><linearGradient id="c" x1="210.72" y1="812.09" x2="841.74" y2="105.89" gradientUnits="userSpaceOnUse"><stop offset="0" stop-color="#fff" stop-opacity="0"/><stop offset="0.13" stop-color="#fbfefe" stop-opacity="0.02"/><stop offset="0.26" stop-color="#f0f9fd" stop-opacity="0.07"/><stop offset="0.39" stop-color="#ddf2fa" stop-opacity="0.16"/><stop offset="0.52" stop-color="#c3e7f7" stop-opacity="0.28"/><stop offset="0.65" stop-color="#a1daf2" stop-opacity="0.44"/><stop offset="0.78" stop-color="#77caed" stop-opacity="0.63"/><stop offset="0.91" stop-color="#47b7e6" stop-opacity="0.86"/><stop offset="0.98" stop-color="#29abe2"/></linearGradient></defs><title>alfis</title><g class="a"><circle class="b" cx="495.18" cy="495.03" r="494.5"/></g><circle class="c" cx="494.75" cy="495.25" r="494.5"/><circle class="d" cx="494.75" cy="495.25" r="494.5"/><circle class="e" cx="494.5" cy="494.5" r="494.5"/><g class="f"><path class="g" d="M599.44,795.05c-164,54.54-341.5-33.58-395.64-196.4a309.85,309.85,0,0,1,9.08-219.35,10.87,10.87,0,0,1,14.17-5.76,10.73,10.73,0,0,1,5.73,14.07,288.46,288.46,0,0,0-8.46,204.22C274.72,743.43,440,825.46,592.67,774.69s235.92-215.42,185.51-367S562.54,174,409.83,224.81c-63.14,21-115.76,61.29-152.14,116.52a10.82,10.82,0,0,1-14.95,3.14,10.65,10.65,0,0,1-3.09-14.85C278.72,270.28,335.22,227,403.06,204.45c164-54.54,341.5,33.58,395.64,196.4S763.44,740.52,599.44,795.05Z" transform="translate(-6.75 -5.25)"/><path class="h" d="M386.24,857.64C188.9,794.23,79.94,582.07,143.36,384.74A375.8,375.8,0,0,1,308.08,177.21a13,13,0,0,1,13.33,22.25A349.94,349.94,0,0,0,168,392.67C109,576.4,210.43,773.91,394.17,833s381.24-42.39,440.29-226.13S792.07,225.59,608.33,166.54C532.36,142.13,452.84,144,378.4,172a13,13,0,1,1-9.12-24.26c80-30.1,165.36-32.14,247-5.91,197.34,63.41,306.3,275.57,242.88,472.9S583.57,921.06,386.24,857.64Z" transform="translate(-6.75 -5.25)"/><path class="i" d="M501.25,944.5C256,944.5,56.5,745,56.5,499.75A444.63,444.63,0,0,1,166.92,206.37,15.35,15.35,0,0,1,190,226.61,414,414,0,0,0,87.17,499.75c0,228.33,185.75,414.08,414.08,414.08S915.33,728.08,915.33,499.75,729.58,85.67,501.25,85.67c-94.41,0-183.3,30.92-257,89.41a15.32,15.32,0,1,1-19.05-24C304.36,88.22,399.82,55,501.25,55,746.48,55,946,254.52,946,499.75S746.48,944.5,501.25,944.5Z" transform="translate(-6.75 -5.25)"/></g></svg>