<?xml version="1.0" encoding="UTF-8"?>
<svg width="16" height="16" version="1.1" viewBox="0 0 16 16" xmlns="http://www.w3.org/2000/svg"><path d="m8-9.54e-6c-0.712 1.75-1.14 2.89-1.93 4.58 0.486 0.515 1.08 1.12 2.05 1.79-1.04-0.429-1.75-0.859-2.28-1.31-1.01 2.12-2.6 5.13-5.83 10.9 2.54-1.46 4.5-2.37 6.33-2.71-0.0787-0.339-0.123-0.705-0.12-1.09l0.00298-0.0818c0.0402-1.62 0.885-2.87 1.89-2.79 1 0.0848 1.78 1.47 1.74 3.1-0.0067 0.306-0.0414 0.6-0.102 0.872 1.81 0.354 3.76 1.25 6.26 2.7-0.493-0.908-0.934-1.73-1.35-2.51-0.662-0.513-1.35-1.18-2.76-1.9 0.969 0.252 1.66 0.542 2.2 0.866-4.27-7.96-4.62-9.02-6.09-12.5l9.63e-5 -5e-4z" fill="#1793d1" stroke-width=".0963"/></svg>
