<?xml version="1.0" encoding="UTF-8"?>
<svg width="16" height="16" enable-background="new 0 2 48 48" version="1.1" viewBox="0 2 16 16" xml:space="preserve" xmlns="http://www.w3.org/2000/svg">






<g transform="matrix(.441 0 0 .441 -2.77 -1.49)"><polygon points="21.5 40.6 27.7 40.6 33.5 36.2 36.1 29.3 30.1 22 28.4 17.9 20.1 18.2 20.2 20.5 18.6 23.5 16.1 28.4 15.6 32.5 17.4 38.3" fill="#eceff1"/><path d="m34.3 23.9c-1.6-2.3-2.9-3.7-3.6-6.6s0.2-2.1-0.4-4.6c-0.3-1.3-0.8-2.2-1.3-2.9-0.6-0.7-1.3-1.1-1.7-1.2-0.9-0.5-3-1.3-5.6 0.1-2.7 1.4-2.4 4.4-1.9 10.5 0 0.4-0.1 0.9-0.3 1.3-0.4 0.9-1.1 1.7-1.7 2.4-0.7 1-1.4 2-1.9 3.1-1.2 2.3-2.3 5.2-2 6.3 0.5-0.1 6.8 9.5 6.8 9.7 0.4-0.1 2.1-0.1 3.6-0.1 2.1-0.1 3.3-0.2 5 0.2 0-0.3-0.1-0.6-0.1-0.9 0-0.6 0.1-1.1 0.2-1.8 0.1-0.5 0.2-1 0.3-1.6-1 0.9-2.8 1.9-4.5 2.2-1.5 0.3-4-0.2-5.2-1.7 0.1 0 0.3 0 0.4-0.1 0.3-0.1 0.6-0.2 0.7-0.4 0.3-0.5 0.1-1-0.1-1.3s-1.7-1.4-2.4-2-1.1-0.9-1.5-1.3l-0.8-0.8c-0.2-0.2-0.3-0.4-0.4-0.5-0.2-0.5-0.3-1.1-0.2-1.9 0.1-1.1 0.5-2 1-3 0.2-0.4 0.7-1.2 0.7-1.2s-1.7 4.2-0.8 5.5c0 0 0.1-1.3 0.5-2.6 0.3-0.9 0.8-2.2 1.4-2.9s2.1-3.3 2.2-4.9c0-0.7 0.1-1.4 0.1-1.9-0.4-0.4 6.6-1.4 7-0.3 0.1 0.4 1.5 4 2.3 5.9 0.4 0.9 0.9 1.7 1.2 2.7 0.3 1.1 0.5 2.6 0.5 4.1 0 0.3 0 0.8-0.1 1.3 0.2 0 4.1-4.2-0.5-7.7 0 0 2.8 1.3 2.9 3.9 0.1 2.1-0.8 3.8-1 4.1 0.1 0 2.1 0.9 2.2 0.9 0.4 0 1.2-0.3 1.2-0.3 0.1-0.3 0.4-1.1 0.4-1.4 0.7-2.3-1-6-2.6-8.3z" fill="#263238"/><g fill="#eceff1">
	<ellipse cx="21.6" cy="15.3" rx="1.3" ry="2"/>
	<ellipse cx="26.1" cy="15.2" rx="1.7" ry="2.3"/>
</g><g fill="#212121">
	
		<ellipse transform="matrix(-.125 -.992 .992 -.125 8.98 39)" cx="21.7" cy="15.5" rx="1.2" ry=".7"/>
	<ellipse cx="26" cy="15.6" rx="1" ry="1.3"/>
</g><g fill="#ffc107">
	<path d="m39.3 37.6c-0.4-0.2-1.1-0.5-1.7-1.4-0.3-0.5-0.2-1.9-0.7-2.5-0.3-0.4-0.7-0.2-0.8-0.2-0.9 0.2-3 1.6-4.4 0-0.2-0.2-0.5-0.5-1-0.5s-0.7 0.2-0.9 0.6-0.2 0.7-0.2 1.7c0 0.8 0 1.7-0.1 2.4-0.2 1.7-0.5 2.7-0.5 3.7 0 1.1 0.3 1.8 0.7 2.1 0.3 0.3 0.8 0.5 1.9 0.5s1.8-0.4 2.5-1.1c0.5-0.5 0.9-0.7 2.3-1.7 1.1-0.7 2.8-1.6 3.1-1.9 0.2-0.2 0.5-0.3 0.5-0.9 0-0.5-0.4-0.7-0.7-0.8z"/>
	<path d="m19.2 37.9c-1-1.6-1.1-1.9-1.8-2.9-0.6-1-1.9-2.9-2.7-2.9-0.6 0-0.9 0.3-1.3 0.7s-0.8 1.3-1.5 1.8c-0.6 0.5-2.3 0.4-2.7 1s0.4 1.5 0.4 3c0 0.6-0.5 1-0.6 1.4-0.1 0.5-0.2 0.8 0 1.2 0.4 0.6 0.9 0.8 4.3 1.5 1.8 0.4 3.5 1.4 4.6 1.5s3 0 3-2.7c0.1-1.6-0.8-2-1.7-3.6z"/>
	<path d="m21.1 19.8c-0.6-0.4-1.1-0.8-1.1-1.4s0.4-0.8 1-1.3c0.1-0.1 1.2-1.1 2.3-1.1s2.4 0.7 2.9 0.9c0.9 0.2 1.8 0.4 1.7 1.1-0.1 1-0.2 1.2-1.2 1.7-0.7 0.2-2 1.3-2.9 1.3-0.4 0-1 0-1.4-0.1-0.3-0.1-0.8-0.6-1.3-1.1z"/>
</g><g fill="#634703">
	<path d="m20.9 19c0.2 0.2 0.5 0.4 0.8 0.5 0.2 0.1 0.5 0.2 0.5 0.2h0.9c0.5 0 1.2-0.2 1.9-0.6 0.7-0.3 0.8-0.5 1.3-0.7 0.5-0.3 1-0.6 0.8-0.7s-0.4 0-1.1 0.4c-0.6 0.4-1.1 0.6-1.7 0.9-0.3 0.1-0.7 0.3-1 0.3h-0.9c-0.3 0-0.5-0.1-0.8-0.2-0.2-0.1-0.3-0.2-0.4-0.2-0.2-0.1-0.6-0.5-0.8-0.6 0 0-0.2 0-0.1 0.1l0.6 0.6z"/>
	<path d="m23.9 16.8c0.1 0.2 0.3 0.2 0.4 0.3s0.2 0.1 0.2 0.1c0.1-0.1 0-0.3-0.1-0.3 0-0.2-0.5-0.2-0.5-0.1z"/>
	<path d="m22.3 17c0 0.1 0.2 0.2 0.2 0.1 0.1-0.1 0.2-0.2 0.3-0.2 0.2-0.1 0.1-0.2-0.2-0.2-0.2 0.1-0.2 0.2-0.3 0.3z"/>
</g><path d="m32 34.7v0.3c0.2 0.4 0.7 0.5 1.1 0.5 0.6 0 1.2-0.4 1.5-0.8 0-0.1 0.1-0.2 0.2-0.3 0.2-0.3 0.3-0.5 0.4-0.6 0 0-0.1-0.1-0.1-0.2-0.1-0.2-0.4-0.4-0.8-0.5-0.3-0.1-0.8-0.2-1-0.2-0.9-0.1-1.4 0.2-1.7 0.5 0 0 0.1 0 0.1 0.1 0.2 0.2 0.3 0.4 0.3 0.7 0.1 0.2 0 0.3 0 0.5z" fill="#455a64"/></g>
</svg>
